<?xml version="1.0" encoding="utf-8"?>
<!-- Generator: Adobe Illustrator 25.0.0, SVG Export Plug-In . SVG Version: 6.00 Build 0)  -->
<svg version="1.1" id="Layer_1" xmlns="http://www.w3.org/2000/svg" xmlns:xlink="http://www.w3.org/1999/xlink" x="0px" y="0px"
	 viewBox="0 0 118 50" style="enable-background:new 0 0 118 50;" xml:space="preserve">
<style type="text/css">
	.st0{fill-rule:evenodd;clip-rule:evenodd;fill:#FFFFFF;}
	.st1{fill:#FFFFFF;}
</style>
<g id="Symbols">
	<g id="nav-bar" transform="translate(-44.000000, -21.000000)">
		<g id="updater" transform="translate(43.000000, 21.000000)">
			<path id="Fill-1" class="st0" d="M5.2,48.2c-1.5,0-2.8-1.2-2.8-2.8c0-1.5,1.2-2.8,2.8-2.8S8,43.9,8,45.4
				C8,46.9,6.8,48.2,5.2,48.2 M5.2,43.5c-1.1,0-2,0.9-2,1.9c0,1.1,0.9,1.9,2,1.9s2-0.9,2-1.9C7.2,44.3,6.3,43.5,5.2,43.5"/>
			<path id="Fill-4" class="st0" d="M115,36.9c1.5,0,2.8,1.2,2.8,2.8s-1.2,2.8-2.8,2.8s-2.8-1.2-2.8-2.8S113.5,36.9,115,36.9"/>
			<path id="Fill-6" class="st0" d="M12.4,33.3c0,2-1.4,3.4-3.3,3.4c-1.6,0-2.3-0.8-2.3-2.7v-9.5H2.4v10.2c0,3.8,2.2,6.1,5.7,6.1
				c1.6,0,3.1-0.5,4.3-1.6v1.2h4.3v-16h-4.3V33.3z"/>
			<path id="Fill-8" class="st0" d="M29,24.1c-1.6,0-3.2,0.5-4.4,1.6v-1.2h-4.3v20.9h4.3v-6.1c1.2,1,2.8,1.6,4.4,1.6
				c4.3,0,7.4-3.4,7.4-8.3C36.3,27.5,33.3,24.1,29,24.1 M31.8,32.4c0,2.1-0.9,4.3-3.6,4.3c-2.7,0-3.7-2.3-3.7-4.3c0-2,1-4.3,3.7-4.3
				C30.9,28,31.8,30.3,31.8,32.4"/>
			<path id="Fill-10" class="st0" d="M49.8,25.6c-1.2-1-2.8-1.6-4.4-1.6c-4.4,0-7.4,3.4-7.4,8.3c0,4.9,3,8.3,7.4,8.3
				c1.6,0,3.2-0.5,4.4-1.6v1.2h4.3V19.1h-4.3V25.6z M49.8,32.4c0,2.1-1,4.3-3.7,4.3c-3.3,0-3.6-3.3-3.6-4.3c0-2.1,0.9-4.3,3.6-4.3
				C48.8,28,49.8,30.4,49.8,32.4z"/>
			<path id="Fill-13" class="st0" d="M71.4,37c-0.1,0.1-0.3,0.1-0.5,0.1c-0.3,0-0.4,0-0.4-0.7v-6.7c0-3.6-2.3-5.5-6.6-5.5
				c-2.3,0-4.5,0.6-6.4,1.9L57,26.3l1.8,3.4l0.6-0.4c1.3-0.9,2.7-1.4,4.3-1.4c0.6,0,2.4,0.1,2.4,1.3c0,0.8-0.8,1-3.2,1.3
				c-2.1,0.2-6.3,0.7-6.3,5.1c0,3.2,2.2,5.2,5.7,5.2c1.1,0,3.2-0.2,4.7-1.7c0.6,1,1.7,1.6,3.2,1.6c0.8,0,1.5-0.1,2.2-0.4l0.4-0.2
				l-0.6-3.5L71.4,37z M66.1,33.2v1c0,2.7-2.4,2.9-3.1,2.9c-1.4,0-2.1-0.5-2.1-1.6c0-1,0.5-1.4,2.2-1.7c0.2,0,0.5-0.1,0.7-0.1
				C64.6,33.7,65.4,33.5,66.1,33.2z"/>
			<path id="Fill-15" class="st0" d="M82.4,36.2c-0.4,0.3-0.9,0.5-1.5,0.5c-1,0-1.4-0.5-1.4-1.6V28h4.6v-3.6h-4.6v-4h-4.3v4h-2.5V28
				h2.5v7.1c0,1.6,0.2,2.6,0.8,3.4c0.9,1.4,2.4,2.2,4.5,2.2c1.4,0,2.8-0.4,3.9-1.2l0.4-0.3L83,35.8L82.4,36.2z"/>
			<path id="Fill-17" class="st0" d="M93.6,24.1c-4.7,0-8.1,3.4-8.1,8.4c0,5,3.3,8.3,8.4,8.3c2.6,0.1,5.1-1,6.9-2.9l0.4-0.4
				l-2.9-2.8l-0.4,0.4c-1,1.1-2.4,1.7-3.9,1.7c-2.2,0-3.5-1.1-3.9-3h11.2l0.1-0.5c0-0.4,0.1-0.8,0.1-1.1
				C101.4,27.3,98.3,24.1,93.6,24.1 M97,30.3h-6.8c0.4-1.6,1.7-2.5,3.4-2.5C95.4,27.8,96.6,28.7,97,30.3"/>
			<path id="Fill-19" class="st0" d="M114.1,24.7c-0.7-0.4-1.5-0.6-2.3-0.6c-1.4,0-2.6,0.6-3.6,1.6v-1.3h-4.3v16h4.3v-8.1
				c0-2.6,1.5-3.8,3-3.8c0.5,0,1,0.1,1.4,0.4l0.7,0.3l1.2-4.2L114.1,24.7z"/>
			<polygon id="Fill-22" class="st0" points="115.5,45.9 7.3,45.9 7.3,44.9 114.5,44.9 114.5,41.1 115.5,41.1 			"/>
		</g>
	</g>
</g>
<g>
	<path class="st1" d="M2,10.1v-8h3.5c1.7,0,2.6,1.1,2.6,2.5c0,1.4-0.9,2.5-2.6,2.5H3.4v3H2z M6.7,4.6c0-0.8-0.6-1.3-1.4-1.3H3.4v2.5
		h1.9C6.1,5.8,6.7,5.3,6.7,4.6z"/>
	<path class="st1" d="M13,6.1c0-2.4,1.7-4.1,4.1-4.1c2.4,0,4.1,1.8,4.1,4.1s-1.7,4.1-4.1,4.1C14.7,10.2,13,8.5,13,6.1z M19.8,6.1
		c0-1.7-1-2.9-2.7-2.9c-1.6,0-2.7,1.2-2.7,2.9c0,1.6,1,2.9,2.7,2.9C18.7,9,19.8,7.7,19.8,6.1z"/>
	<path class="st1" d="M32.5,10.1L31,4.1l-1.6,5.9h-1.5l-2.3-8h1.6l1.6,6.2l1.7-6.2h1.1l1.7,6.2l1.6-6.2h1.6l-2.3,8H32.5z"/>
	<path class="st1" d="M41.3,10.1v-8h5.5v1.2h-4.1v2.1h4v1.2h-4v2.2h4.1v1.2H41.3z"/>
	<path class="st1" d="M56.9,10.1l-1.8-3h-1.4v3h-1.4v-8h3.5c1.6,0,2.6,1,2.6,2.5c0,1.4-0.9,2.2-1.9,2.4l2,3.1H56.9z M57,4.6
		c0-0.8-0.6-1.3-1.4-1.3h-1.9v2.5h1.9C56.4,5.8,57,5.3,57,4.6z"/>
	<path class="st1" d="M63.9,10.1v-8h5.5v1.2h-4.1v2.1h4v1.2h-4v2.2h4.1v1.2H63.9z"/>
	<path class="st1" d="M74.9,10.1v-8h3c2.5,0,4.2,1.7,4.2,4c0,2.4-1.7,4-4.2,4H74.9z M80.7,6.1c0-1.5-1-2.8-2.7-2.8h-1.6v5.5h1.6
		C79.6,8.8,80.7,7.6,80.7,6.1z"/>
	<path class="st1" d="M94.7,10.1v-8h3.9c1.5,0,2.3,0.9,2.3,2c0,1-0.6,1.7-1.4,1.8c0.9,0.1,1.5,1,1.5,2c0,1.2-0.8,2.2-2.3,2.2H94.7z
		 M99.5,4.3c0-0.6-0.4-1-1.1-1h-2.3v2.1h2.3C99.1,5.4,99.5,4.9,99.5,4.3z M99.6,7.7c0-0.6-0.4-1.1-1.2-1.1h-2.3v2.2h2.3
		C99.2,8.8,99.6,8.4,99.6,7.7z"/>
	<path class="st1" d="M108.5,10.1V6.7l-3.1-4.7h1.6l2.2,3.4l2.2-3.4h1.6l-3.1,4.7v3.3H108.5z"/>
</g>
</svg>
