<?xml version="1.0" encoding="utf-8"?>
<!-- Generator: Adobe Illustrator 25.0.0, SVG Export Plug-In . SVG Version: 6.00 Build 0)  -->
<svg version="1.1" id="Layer_1" xmlns="http://www.w3.org/2000/svg" xmlns:xlink="http://www.w3.org/1999/xlink" x="0px" y="0px"
	 viewBox="0 0 659 142" style="enable-background:new 0 0 659 142;" xml:space="preserve">
<style type="text/css">
	.st0{fill:#FFFFFF;}
</style>
<path class="st0" d="M41.1,71.5L64,40.1h-9.5c-3.7-0.2-7.3,1.6-9.4,4.7L33,61.2L21.3,44.5c-2.2-3.1-5.8-4.7-9.6-4.4H2.1l22.9,31.6
	l-25,34.2H9c3.7,0.2,7.3-1.6,9.4-4.7l14.5-19.5l33.9,47.8c2.1,3.1,5.7,4.9,9.4,4.7h9.9L41.1,71.5z M226.3,105.9h13.1V40.1h-13.1
	V105.9z M122.4,105.9h13.1V40.1h-13.1V105.9z M321,129.2l47.4-89.1h-7.1c-3.8-0.5-7.4,1.4-9.4,4.7l-18.7,35.4l-16-35.4
	c-1.9-3.4-5.7-5.3-9.6-4.7h-6.8l24.9,53.6L304,134.2h7.1C315,134.5,318.9,132.6,321,129.2z M151.2,40.1v65.8h13.1V60.6
	c3.8-6,10.3-9.6,17.3-9.6c9.7,0,16,6.2,16,18.7v29.8c-0.2,3.3,2.3,6.2,5.6,6.4c0.2,0,0.3,0,0.5,0h7V67.3c0-17.1-10.7-29-26.2-29
	c-7.5-0.1-14.8,2.7-20.3,7.9v-6.1H151.2z M263.7,82.7c-1,12.6,8.3,23.6,20.7,24.6c1.1,0.1,2.3,0.1,3.4,0c3.2,0,6.5-0.4,9.6-1.3
	l-2.7-11.6c-2,0.4-4,0.7-6,0.7c-6.1,0.5-11.5-4.1-12-10.3c-0.1-0.7,0-1.5,0-2.2V51.8h18.3l-5.3-11.6h-13V13.3l-13.1,5.8v21h-13.9
	v11.6h13.8L263.7,82.7z M82.1,52v54.2h13.1V51.8h16.9V40.1H95.3v-5.4c0-11.3,6.6-15,13.1-15c1.5,0,3,0.2,4.4,0.7l2.7-11.8
	c-2.6-0.8-5.4-1.2-8.1-1c-16,0-25.2,12.3-25.2,27.2v5.4h-6.9l-8.2,11.6L82.1,52z"/>
<g>
	<path class="st0" d="M453.9,38.4c0.5-0.2,1.2-0.5,1.9-0.7c0.7-0.2,1.5-0.4,2.4-0.5c0.9-0.1,1.8-0.2,2.8-0.2c1.3,0,2.4,0.1,3.4,0.4
		c1,0.3,1.8,0.7,2.5,1.4c0.7,0.6,1.2,1.5,1.6,2.5c0.4,1,0.5,2.3,0.5,3.8v9c0,1.5,0.1,2.8,0.4,3.7s0.6,1.7,0.8,2.2h-3.5
		c-0.1-0.3-0.3-0.7-0.5-1.3c-0.2-0.6-0.4-1.3-0.4-2.1c-0.8,1.2-1.8,2.1-3,2.8c-1.2,0.7-2.7,1-4.3,1c-1,0-2-0.1-2.9-0.4
		c-0.9-0.3-1.6-0.7-2.2-1.2c-0.6-0.5-1.1-1.2-1.4-2s-0.5-1.7-0.5-2.7c0-1.1,0.2-2.1,0.7-3c0.5-0.9,1.2-1.7,2.3-2.3s2.5-1.1,4.3-1.5
		c1.8-0.4,4-0.6,6.7-0.6v-1.8c0-0.8-0.1-1.4-0.2-2c-0.2-0.6-0.4-1.1-0.8-1.4s-0.8-0.7-1.4-0.9c-0.6-0.2-1.3-0.3-2.2-0.3
		c-1.2,0-2.5,0.2-3.6,0.5s-2.3,0.7-3.3,1.2l-1.3-2.7C452.9,38.9,453.4,38.6,453.9,38.4z M461.4,49.1c-1.1,0.2-2.1,0.4-2.9,0.6
		s-1.4,0.5-1.9,0.8c-0.5,0.3-0.8,0.6-1.1,1c-0.2,0.3-0.4,0.7-0.5,1c-0.1,0.4-0.1,0.7-0.1,1c0,1.2,0.3,2.2,1,2.8c0.7,0.7,1.7,1,3.2,1
		c0.9,0,1.8-0.1,2.6-0.4c0.8-0.3,1.5-0.7,2-1.2s1-1.1,1.3-1.9c0.3-0.7,0.5-1.6,0.5-2.5v-2.7C463.9,48.8,462.5,49,461.4,49.1z"/>
	<path class="st0" d="M490.3,56c-0.4,0.8-0.9,1.5-1.4,2.1c-0.5,0.6-1,1-1.6,1.3c-0.6,0.3-1.2,0.6-1.8,0.7c-0.6,0.1-1.3,0.2-2,0.2
		c-1.2,0-2.2-0.2-3.1-0.6c-0.9-0.4-1.7-0.9-2.3-1.6c-0.6-0.7-1.1-1.5-1.5-2.5c-0.3-1-0.5-2.2-0.5-3.7V37.3h3.5v15.3
		c0,0.6,0.1,1.2,0.2,1.8c0.2,0.6,0.5,1.1,0.9,1.6c0.4,0.4,0.9,0.7,1.5,0.9s1.3,0.4,2.2,0.4c0.9,0,1.7-0.2,2.4-0.5
		c0.7-0.3,1.3-0.7,1.8-1.2c0.5-0.5,0.8-1.1,1.1-1.8c0.2-0.7,0.4-1.4,0.4-2.1V37.3h3.5V56l0.4,4h-3.3L490.3,56z"/>
	<path class="st0" d="M505.5,37.3h5.3v2.7h-5.3v14.5c0,0.4,0,0.7,0.1,1c0.1,0.3,0.2,0.6,0.4,0.8s0.4,0.4,0.7,0.5s0.6,0.2,1,0.2h3.4
		l-0.2,2.7c-0.2,0.1-0.4,0.2-0.6,0.2c-0.2,0.1-0.5,0.1-0.8,0.1s-0.6,0-1,0.1c-0.4,0-0.8,0-1.3,0c-0.8,0-1.6-0.1-2.2-0.4
		s-1.2-0.6-1.6-1.1c-0.4-0.5-0.8-1-1-1.6c-0.2-0.6-0.3-1.3-0.3-2V40.1h-3.7v-2.7h3.7l0.4-6h3.1V37.3z"/>
	<path class="st0" d="M519.6,41c0.4-0.8,0.9-1.5,1.3-2c0.5-0.5,1-0.9,1.5-1.2s1.1-0.5,1.7-0.6c0.6-0.1,1.3-0.2,2-0.2
		c1.2,0,2.2,0.2,3.1,0.6c0.9,0.4,1.7,0.9,2.3,1.6c0.6,0.7,1.1,1.5,1.5,2.5c0.3,1,0.5,2.2,0.5,3.7V60h-3.5V44.7
		c0-0.6-0.1-1.2-0.3-1.8c-0.2-0.6-0.5-1.1-0.9-1.6c-0.4-0.4-0.9-0.7-1.4-1c-0.6-0.2-1.3-0.4-2.2-0.4c-0.9,0-1.7,0.2-2.4,0.5
		s-1.3,0.7-1.8,1.2c-0.5,0.5-0.8,1.1-1.1,1.8c-0.3,0.7-0.4,1.4-0.4,2.1V60h-3.5V27.6h3.5V41z"/>
	<path class="st0" d="M553.6,37.9c1.2,0.6,2.3,1.4,3.1,2.4c0.9,1,1.5,2.2,2,3.7s0.7,3,0.7,4.7c0,1.6-0.2,3.1-0.7,4.5
		c-0.4,1.4-1.1,2.6-1.9,3.7s-1.9,1.9-3.1,2.5c-1.2,0.6-2.6,0.9-4.2,0.9c-1.5,0-2.9-0.3-4.2-0.8c-1.2-0.6-2.3-1.4-3.1-2.4
		s-1.5-2.3-2-3.7c-0.5-1.4-0.7-3-0.7-4.8c0-1.6,0.2-3.1,0.7-4.5c0.4-1.4,1.1-2.6,1.9-3.7c0.9-1.1,1.9-1.9,3.1-2.5
		c1.2-0.6,2.7-0.9,4.2-0.9C551,37,552.4,37.3,553.6,37.9z M546.5,40.7c-0.8,0.5-1.4,1.1-1.9,1.8s-0.9,1.7-1.1,2.7
		c-0.2,1-0.3,2.2-0.3,3.4c0,1.1,0.1,2.2,0.3,3.2c0.2,1,0.6,2,1,2.8c0.5,0.8,1.1,1.5,1.9,2c0.8,0.5,1.8,0.7,3,0.7
		c1.2,0,2.1-0.2,2.9-0.7s1.4-1.1,1.9-1.9c0.5-0.8,0.9-1.7,1.1-2.8c0.2-1.1,0.3-2.2,0.3-3.4c0-1.1-0.1-2.1-0.3-3.2
		c-0.2-1-0.6-1.9-1-2.8c-0.5-0.8-1.1-1.4-1.9-1.9c-0.8-0.5-1.8-0.7-3-0.7C548.3,40,547.3,40.3,546.5,40.7z"/>
	<path class="st0" d="M569,41.3c0.3-0.6,0.7-1.1,1-1.6s0.8-0.9,1.2-1.3c0.4-0.4,0.9-0.7,1.4-0.9s1.1-0.3,1.7-0.3
		c0.3,0,0.7,0,1.1,0.1c0.4,0,0.8,0.1,1.3,0.2l-0.4,3.7c-0.5-0.1-1-0.2-1.3-0.2s-0.7-0.1-1-0.1c-1.5,0-2.7,0.4-3.6,1.2
		c-0.9,0.8-1.3,2-1.3,3.5V60h-3.5V41.3l-0.4-3.9h3.3L569,41.3z"/>
	<path class="st0" d="M585,31.6h-4v-4h4V31.6z M584.7,60h-3.5V37.3h3.5V60z"/>
	<path class="st0" d="M606.4,39.6l-11.9,17.7h12.3V60h-16.4v-2.2l11.9-17.7h-10.9v-2.7h15V39.6z"/>
	<path class="st0" d="M614.5,52.2c0.2,1,0.6,1.8,1.1,2.6c0.5,0.8,1.2,1.4,2.1,1.8c0.9,0.5,2,0.7,3.4,0.7c0.6,0,1.2-0.1,1.8-0.2
		s1.1-0.3,1.6-0.5c0.5-0.2,1-0.5,1.5-0.8c0.5-0.3,1-0.6,1.5-1l1.4,2.8c-1.1,0.8-2.3,1.5-3.5,1.9s-2.7,0.7-4.4,0.7
		c-1.8,0-3.4-0.3-4.8-0.9c-1.3-0.6-2.4-1.4-3.3-2.4c-0.9-1-1.5-2.2-1.9-3.6c-0.4-1.4-0.6-2.9-0.6-4.5c0-1.7,0.2-3.3,0.7-4.8
		c0.5-1.5,1.1-2.7,2-3.8c0.9-1.1,1.9-1.9,3.2-2.5c1.3-0.6,2.7-0.9,4.2-0.9c1.4,0,2.7,0.3,3.8,0.8c1.1,0.5,2,1.2,2.8,2.1
		s1.3,2,1.7,3.2s0.6,2.6,0.6,4c0,0.4,0,0.7,0,1s-0.1,0.7-0.1,1.2h-15.3C614.2,50.3,614.3,51.3,614.5,52.2z M618.2,40.4
		c-0.7,0.3-1.3,0.7-1.8,1.3s-1,1.3-1.3,2.1c-0.4,0.8-0.6,1.8-0.7,2.8H626c0-0.9-0.1-1.8-0.4-2.6s-0.6-1.5-1.1-2.1
		c-0.5-0.6-1-1.1-1.7-1.4s-1.5-0.5-2.4-0.5C619.7,39.9,618.9,40.1,618.2,40.4z"/>
	<path class="st0" d="M653.2,60h-2.9l-0.4-3.4c-0.5,0.7-1,1.3-1.5,1.8s-1.1,0.9-1.7,1.2c-0.6,0.3-1.2,0.5-1.8,0.6
		c-0.6,0.1-1.2,0.2-1.9,0.2c-1.2,0-2.2-0.2-3.1-0.5c-0.9-0.3-1.7-0.8-2.3-1.4c-0.7-0.6-1.2-1.3-1.6-2.1c-0.4-0.8-0.8-1.6-1-2.5
		s-0.4-1.8-0.5-2.7s-0.2-1.8-0.2-2.6c0-1.6,0.2-3.1,0.5-4.5c0.4-1.4,0.9-2.6,1.6-3.7c0.7-1.1,1.7-1.9,2.8-2.5
		c1.1-0.6,2.5-0.9,4.1-0.9c1.5,0,2.8,0.3,3.8,0.8c1,0.6,1.9,1.5,2.6,2.7V27.6h3.5V60z M649.4,43.6c-0.2-0.6-0.6-1.2-1-1.8
		s-1.1-1-1.8-1.3c-0.7-0.3-1.6-0.5-2.7-0.5c-0.8,0-1.6,0.1-2.2,0.3c-0.6,0.2-1.1,0.5-1.6,1s-0.8,0.9-1.1,1.4s-0.5,1.1-0.7,1.8
		c-0.2,0.6-0.3,1.3-0.3,2c-0.1,0.7-0.1,1.4-0.1,2.1c0,1,0.1,2.1,0.2,3.1c0.1,1,0.4,2,0.8,2.8c0.4,0.8,1,1.5,1.8,2s1.8,0.8,3.1,0.8
		c1,0,1.9-0.2,2.7-0.5c0.7-0.3,1.3-0.8,1.8-1.3s0.8-1.1,1-1.8c0.2-0.6,0.3-1.3,0.3-1.9v-6.4C649.7,44.9,649.6,44.3,649.4,43.6z"/>
	<path class="st0" d="M456.6,87.7c0.3-0.6,0.7-1.1,1-1.6s0.8-0.9,1.2-1.3c0.4-0.4,0.9-0.7,1.4-0.9s1.1-0.3,1.7-0.3
		c0.3,0,0.7,0,1.1,0.1c0.4,0,0.8,0.1,1.3,0.2l-0.4,3.7c-0.5-0.1-1-0.2-1.3-0.2s-0.7-0.1-1-0.1c-1.5,0-2.7,0.4-3.6,1.2
		c-0.9,0.8-1.3,2-1.3,3.5v14.2h-3.5V87.7l-0.4-3.9h3.3L456.6,87.7z"/>
	<path class="st0" d="M471.2,98.6c0.2,1,0.6,1.8,1.1,2.6c0.5,0.8,1.2,1.4,2.1,1.8c0.9,0.5,2,0.7,3.4,0.7c0.6,0,1.2-0.1,1.8-0.2
		s1.1-0.3,1.6-0.5c0.5-0.2,1-0.5,1.5-0.8c0.5-0.3,1-0.6,1.5-1l1.4,2.8c-1.1,0.8-2.3,1.5-3.5,1.9s-2.7,0.7-4.4,0.7
		c-1.8,0-3.4-0.3-4.8-0.9c-1.3-0.6-2.4-1.4-3.3-2.4c-0.9-1-1.5-2.2-1.9-3.6c-0.4-1.4-0.6-2.9-0.6-4.5c0-1.7,0.2-3.3,0.7-4.8
		c0.5-1.5,1.1-2.7,2-3.8c0.9-1.1,1.9-1.9,3.2-2.5c1.3-0.6,2.7-0.9,4.2-0.9c1.4,0,2.7,0.3,3.8,0.8c1.1,0.5,2,1.2,2.8,2.1
		s1.3,2,1.7,3.2s0.6,2.6,0.6,4c0,0.4,0,0.7,0,1s-0.1,0.7-0.1,1.2h-15.3C470.9,96.7,471,97.7,471.2,98.6z M474.9,86.8
		c-0.7,0.3-1.3,0.7-1.8,1.3s-1,1.3-1.3,2.1c-0.4,0.8-0.6,1.8-0.7,2.8h11.7c0-0.9-0.1-1.8-0.4-2.6s-0.6-1.5-1.1-2.1
		c-0.5-0.6-1-1.1-1.7-1.4s-1.5-0.5-2.4-0.5C476.4,86.3,475.6,86.5,474.9,86.8z"/>
	<path class="st0" d="M496.6,83.7h5.3v2.7h-5.3V101c0,0.4,0,0.7,0.1,1c0.1,0.3,0.2,0.6,0.4,0.8s0.4,0.4,0.7,0.5s0.6,0.2,1,0.2h3.4
		l-0.2,2.7c-0.2,0.1-0.4,0.2-0.6,0.2c-0.2,0.1-0.5,0.1-0.8,0.1s-0.6,0-1,0.1c-0.4,0-0.8,0-1.3,0c-0.8,0-1.6-0.1-2.2-0.4
		s-1.2-0.6-1.6-1.1c-0.4-0.5-0.8-1-1-1.6c-0.2-0.6-0.3-1.3-0.3-2V86.5h-3.7v-2.7h3.7l0.4-6h3.1V83.7z"/>
	<path class="st0" d="M507.8,84.8c0.5-0.2,1.2-0.5,1.9-0.7c0.7-0.2,1.5-0.4,2.4-0.5c0.9-0.1,1.8-0.2,2.8-0.2c1.3,0,2.4,0.1,3.4,0.4
		c1,0.3,1.8,0.7,2.5,1.4c0.7,0.6,1.2,1.5,1.6,2.5c0.4,1,0.5,2.3,0.5,3.8v9c0,1.5,0.1,2.8,0.4,3.7s0.6,1.7,0.8,2.2h-3.5
		c-0.1-0.3-0.3-0.7-0.5-1.3c-0.2-0.6-0.4-1.3-0.4-2.1c-0.8,1.2-1.8,2.1-3,2.8c-1.2,0.7-2.7,1-4.3,1c-1,0-2-0.1-2.9-0.4
		c-0.9-0.3-1.6-0.7-2.2-1.2c-0.6-0.5-1.1-1.2-1.4-2s-0.5-1.7-0.5-2.7c0-1.1,0.2-2.1,0.7-3c0.5-0.9,1.2-1.7,2.3-2.3s2.5-1.1,4.3-1.5
		c1.8-0.4,4-0.6,6.7-0.6v-1.8c0-0.8-0.1-1.4-0.2-2c-0.2-0.6-0.4-1.1-0.8-1.4s-0.8-0.7-1.4-0.9c-0.6-0.2-1.3-0.3-2.2-0.3
		c-1.2,0-2.5,0.2-3.6,0.5s-2.3,0.7-3.3,1.2l-1.3-2.7C506.8,85.3,507.3,85,507.8,84.8z M515.3,95.5c-1.1,0.2-2.1,0.4-2.9,0.6
		s-1.4,0.5-1.9,0.8c-0.5,0.3-0.8,0.6-1.1,1c-0.2,0.3-0.4,0.7-0.5,1c-0.1,0.4-0.1,0.7-0.1,1c0,1.2,0.3,2.2,1,2.8c0.7,0.7,1.7,1,3.2,1
		c0.9,0,1.8-0.1,2.6-0.4c0.8-0.3,1.5-0.7,2-1.2s1-1.1,1.3-1.9c0.3-0.7,0.5-1.6,0.5-2.5v-2.7C517.8,95.2,516.4,95.4,515.3,95.5z"/>
	<path class="st0" d="M534.2,78h-4v-4h4V78z M534,106.4h-3.5V83.7h3.5V106.4z"/>
	<path class="st0" d="M545.4,106.4h-3.5V74h3.5V106.4z"/>
	<path class="st0" d="M555.7,98.6c0.2,1,0.6,1.8,1.1,2.6c0.5,0.8,1.2,1.4,2.1,1.8c0.9,0.5,2,0.7,3.4,0.7c0.6,0,1.2-0.1,1.8-0.2
		s1.1-0.3,1.6-0.5c0.5-0.2,1-0.5,1.5-0.8c0.5-0.3,1-0.6,1.5-1l1.4,2.8c-1.1,0.8-2.3,1.5-3.5,1.9s-2.7,0.7-4.4,0.7
		c-1.8,0-3.4-0.3-4.8-0.9c-1.3-0.6-2.4-1.4-3.3-2.4c-0.9-1-1.5-2.2-1.9-3.6c-0.4-1.4-0.6-2.9-0.6-4.5c0-1.7,0.2-3.3,0.7-4.8
		c0.5-1.5,1.1-2.7,2-3.8c0.9-1.1,1.9-1.9,3.2-2.5c1.3-0.6,2.7-0.9,4.2-0.9c1.4,0,2.7,0.3,3.8,0.8c1.1,0.5,2,1.2,2.8,2.1
		s1.3,2,1.7,3.2s0.6,2.6,0.6,4c0,0.4,0,0.7,0,1s-0.1,0.7-0.1,1.2h-15.3C555.3,96.7,555.5,97.7,555.7,98.6z M559.4,86.8
		c-0.7,0.3-1.3,0.7-1.8,1.3s-1,1.3-1.3,2.1c-0.4,0.8-0.6,1.8-0.7,2.8h11.7c0-0.9-0.1-1.8-0.4-2.6s-0.6-1.5-1.1-2.1
		c-0.5-0.6-1-1.1-1.7-1.4s-1.5-0.5-2.4-0.5C560.8,86.3,560.1,86.5,559.4,86.8z"/>
	<path class="st0" d="M580.4,87.7c0.3-0.6,0.7-1.1,1-1.6s0.8-0.9,1.2-1.3c0.4-0.4,0.9-0.7,1.4-0.9s1.1-0.3,1.7-0.3
		c0.3,0,0.7,0,1.1,0.1c0.4,0,0.8,0.1,1.3,0.2l-0.4,3.7c-0.5-0.1-1-0.2-1.3-0.2s-0.7-0.1-1-0.1c-1.5,0-2.7,0.4-3.6,1.2
		c-0.9,0.8-1.3,2-1.3,3.5v14.2h-3.5V87.7l-0.4-3.9h3.3L580.4,87.7z"/>
</g>
<rect x="405.8" y="0.8" class="st0" width="2" height="141.4"/>
</svg>
