<?xml version="1.0" encoding="utf-8"?>
<!-- Generator: Adobe Illustrator 16.0.0, SVG Export Plug-In . SVG Version: 6.00 Build 0)  -->
<!DOCTYPE svg PUBLIC "-//W3C//DTD SVG 1.1//EN" "http://www.w3.org/Graphics/SVG/1.1/DTD/svg11.dtd">
<svg version="1.1" id="Layer_1" xmlns="http://www.w3.org/2000/svg" xmlns:xlink="http://www.w3.org/1999/xlink" x="0px" y="0px"
	 width="26px" height="40px" viewBox="0 0 26 40" enable-background="new 0 0 26 40" xml:space="preserve">
<path d="M16.5175781,22.4121094c-0.0585938,0.375-0.5097656,0.6679688-1.0439453,0.6679688
	s-0.9824219-0.2929688-1.0380859-0.6679688l-0.5351563-6.28125C13.9003906,15.5092773,14.5957031,15,15.4736328,15
	c0.8740234,0,1.5732422,0.5092773,1.5732422,1.1308594L16.5175781,22.4121094z M1.8911133,29.6757813
	C1.6318359,28.5253906,0,21.4277344,0,21.4277344h2.0649414c0.1933594,1.0332031,0.7402344,4.03125,0.7402344,4.03125
	C3.0341797,26.6894531,3.25,27.9863281,3.4091797,29.0039063h0.0263672c0.1137695-0.8007813,0.277832-1.5683594,0.4609375-2.4296875
	c0.0654297-0.3056641,0.1333008-0.6240234,0.2016602-0.9589844l0.921875-4.1875h2.0444336l0.8632813,4.2978516l0.0151367,0.0771484
	c0.222168,1.1601563,0.3959961,2.0683594,0.5336914,3.1523438h0.0283203
	c0.112793-0.8105469,0.2485352-1.5371094,0.3989258-2.3408203c0.0576172-0.3076172,0.1171875-0.6269531,0.1782227-0.9658203
	l0.8330078-4.2207031H11.875l-2.4277344,9.7578125c-1.5493164,0.3574219-2.1411133-0.3037109-2.3510742-1.3515625
	c-0.2158203-1.046875-0.6318359-3.046875-0.6318359-3.046875C6.4360352,26.640625,6.4082031,26.5,6.3818359,26.3632813
	l-0.0004883-0.0019531c-0.171875-0.8818359-0.3105469-1.5898438-0.4101563-2.5605469H5.9428711
	c-0.1665039,1.1113281-0.3417969,1.8925781-0.5996094,2.9833984l-1.0200195,4.4013672
	C2.7436523,31.515625,2.1967773,31.0195313,1.8911133,29.6757813z M18.7236328,25.0390625
	c0.2802734,0.4853516,0.7392578,0.7402344,1.0791016,0.6103516l5.4765625-2.6650391
	c0.5097656-0.3134766,0.5859375-1.1933594,0.15625-1.984375c-0.4404297-0.7924805-1.2148438-1.1645508-1.7285156-0.8564453
	l-4.9482422,3.6162109c-0.2744141,0.2470703-0.2939453,0.7939453-0.0292969,1.2832031L18.7236328,25.0390625z
	 M16.5175781,31.5927734c-0.0585938-0.3759766-0.5097656-0.6669922-1.0439453-0.6669922s-0.9824219,0.2910156-1.0380859,0.6669922
	l-0.5351563,6.28125C13.9003906,38.4960938,14.5957031,39,15.4736328,39c0.8740234,0,1.5732422-0.5039063,1.5732422-1.1259766
	L16.5175781,31.5927734z M18.7236328,28.9648438c0.2802734-0.4863281,0.7392578-0.7460938,1.0791016-0.6054688l5.4765625,2.6601563
	c0.5097656,0.3076172,0.5859375,1.1943359,0.15625,1.9873047c-0.4404297,0.7861328-1.2148438,1.1601563-1.7285156,0.8525391
	l-4.9482422-3.6210938c-0.2744141-0.2441406-0.2939453-0.7890625-0.0292969-1.2734375H18.7236328z M14.6542969,25.1591797
	c0-0.4052734,0.3125-0.7333984,0.6992188-0.7333984s0.7011719,0.328125,0.7011719,0.7333984l0.0273438,1.2900391
	l1.2333984,0.0292969c0.3867188,0,0.7001953,0.328125,0.7001953,0.7333984s-0.3134766,0.7333984-0.7001953,0.7333984
	l-1.2333984,0.0292969l-0.0273438,1.2890625c0,0.4052734-0.3144531,0.7333984-0.7011719,0.7333984
	s-0.6992188-0.328125-0.6992188-0.7333984L14.625,27.9746094l-1.2319336-0.0292969
	c-0.3867188,0-0.7006836-0.328125-0.7006836-0.7333984s0.3139648-0.7333984,0.7006836-0.7333984L14.625,26.4492188
	L14.6542969,25.1591797z"/>
</svg>
