<svg width="186" height="40" viewBox="0 0 186 40" fill="none" xmlns="http://www.w3.org/2000/svg">
<g clip-path="url(#clip0_4370_67240)">
<path fill-rule="evenodd" clip-rule="evenodd" d="M180.234 24.8361C180.209 24.973 180.153 25.4636 180.108 25.927C180.063 26.3901 180.007 26.8636 179.984 26.9794L179.941 27.1902H177.415L177.374 27.4387C177.303 27.865 177.1 29.4097 177.1 29.5278C177.1 29.6215 177.307 29.6398 178.379 29.6398H179.657L179.617 29.8502C179.579 30.0487 179.476 30.8626 179.375 31.7643L179.331 32.1662H180.608C181.561 32.1662 181.893 32.1418 181.918 32.0706C181.936 32.0178 181.988 31.5787 182.034 31.0946C182.08 30.61 182.138 30.0859 182.163 29.9288L182.208 29.6435L184.767 29.6017L184.9 28.6063C184.973 28.0588 185.035 27.5163 185.037 27.4006L185.041 27.1902H182.521L182.617 26.4819C182.669 26.0924 182.736 25.5068 182.765 25.1806L182.819 24.5872H180.278L180.234 24.8361Z" fill="white"/>
<path fill-rule="evenodd" clip-rule="evenodd" d="M0 32.8552H2.77562V30.5176C2.77562 27.3932 2.76221 27.4199 4.31748 27.4199C5.83158 27.4199 5.78254 27.3197 5.78254 30.4005V32.8552H8.6419L8.59656 26.8457L8.37359 26.3662C7.98778 25.5361 7.29433 25.075 6.15957 24.8931C5.55633 24.7966 3.27986 24.8237 2.9491 24.9312L2.77562 24.9877V21.2189H0V32.8552ZM21.2798 32.8552H24.1326V21.2189H21.2798V32.8552ZM10.5645 27.3239C10.5673 32.3642 10.9623 32.8524 15.0397 32.8543C17.3837 32.8552 17.8542 32.7454 18.518 32.0408C19.193 31.3242 19.2711 30.8635 19.2735 27.5921L19.2753 24.8168H16.4224V29.8047L16.1971 30.0284C15.9719 30.2521 15.9714 30.2521 14.9981 30.2521C13.3563 30.2521 13.4155 30.3674 13.4155 27.1787V24.8168H10.5626L10.5645 27.3239ZM26.2528 30.7537L26.5058 31.2636C27.1729 32.6085 27.7289 32.8171 30.6475 32.8171H32.8832L33.3075 32.6182C34.6791 31.976 34.8493 31.4244 34.8493 27.6192V24.8168H32.0737L32.0723 27.2858C32.07 30.3996 32.1477 30.2521 30.5041 30.2521C29.5807 30.2521 29.5317 30.2443 29.3041 30.0542L29.0668 29.8557V24.8168H26.2074L26.2528 30.7537Z" fill="white"/>
<path fill-rule="evenodd" clip-rule="evenodd" d="M84.7721 0.0572988C84.6449 0.0733755 84.0033 0.142735 83.3459 0.211176C79.3592 0.626874 74.4001 2.20239 71.4066 4.00482C71.1373 4.16697 70.9009 4.29972 70.882 4.29972C70.8625 4.29972 70.4587 4.54454 69.9836 4.84357C66.7148 6.90323 62.6694 10.7295 63.6658 10.8191C64.0091 10.8503 64.1488 10.7644 64.7261 10.1709C66.1722 8.68315 70.1238 5.60147 70.585 5.60147C70.6081 5.60147 70.7566 5.52063 70.9148 5.42233C75.8115 2.37189 83.6623 0.815661 90.3368 1.5731C101.241 2.81009 110.379 9.52925 113.927 18.919C114.27 19.8275 114.281 19.8353 115.196 19.8381C116.217 19.8418 116.294 19.7628 116.042 18.9768C115.495 17.2695 113.952 14.2847 112.81 12.7212C111.539 10.9807 110.842 10.1562 109.603 8.93119C108.964 8.29915 108.338 7.69558 108.211 7.58947C107.283 6.81641 106.63 6.29277 106.328 6.07918C105.609 5.5707 103.771 4.36908 103.641 4.32268C103.568 4.2965 103.421 4.21612 103.315 4.144C101.393 2.83628 96.5088 1.08483 93.0819 0.474834C91.1695 0.134467 86.141 -0.118167 84.7721 0.0572988ZM51.7501 14.7854C49.4773 15.044 48.2042 15.7597 47.9887 16.8997C47.86 17.5809 49.4139 18.1376 50.0394 17.6351C50.3627 17.3751 49.9899 16.9333 49.4445 16.9305C49.1493 16.9287 48.962 16.8111 49.1609 16.7523C52.7132 15.699 60.1783 17.1795 64.2071 19.7361C64.4305 19.8776 64.6304 19.9938 64.6507 19.9938C64.6715 19.9938 64.9745 20.1886 65.3243 20.427C71.1549 24.3998 72.1925 29.2218 67.6697 31.3261C65.9136 32.1432 62.8054 32.4744 60.5159 32.0881L59.9294 31.9889L59.8799 31.0702C59.8526 30.5649 59.8299 29.3133 59.8299 28.288V26.4245H60.1963C61.3653 26.425 64.6331 27.0428 65.1536 27.362C65.55 27.6055 65.3779 27.9991 64.7025 28.3937C64.1099 28.7395 64.406 29.1066 65.2886 29.119C66.7162 29.1392 67.6761 27.6293 67.029 26.3822C66.4197 25.2091 63.5955 24.2808 60.6339 24.2808H59.7763L59.7291 23.3047C59.6347 21.3654 59.0537 19.9318 58.3926 20.0071C58.0105 20.0503 57.7315 21.3245 57.6196 23.5344C57.5928 24.0713 57.5456 24.5105 57.515 24.5105C55.8585 24.5105 52.4458 25.9996 51.9286 26.9481C51.1931 28.2963 53.5223 30.9283 56.9109 32.5782L57.5002 32.8653L57.5548 33.377C57.6936 34.6719 58.1405 35.1721 59.0389 35.0384C59.5653 34.9599 59.8299 34.6668 59.8299 34.1625C59.8299 33.9489 59.8484 33.7739 59.8706 33.7739C59.8933 33.7739 60.3531 33.8666 60.8925 33.9796C65.2174 34.8873 69.9702 33.4523 71.9719 30.6352C75.8934 25.1154 67.8871 16.9034 56.6305 14.9002C55.8284 14.7574 52.6517 14.683 51.7501 14.7854ZM75.5973 16.3876C72.6399 17.1836 70.8797 19.7265 72.1088 21.426C72.279 21.6612 72.3512 21.8587 72.3743 22.1536C72.4215 22.7563 72.453 22.8573 72.6616 23.081C73.003 23.4466 73.4989 23.284 73.6692 22.7512C73.7103 22.6217 73.7418 22.6194 74.1156 22.7181C76.5281 23.3561 80.5707 20.5808 80.221 18.5272C80.1183 17.9241 79.3499 17.1611 78.8452 17.1611C78.7842 17.1611 78.5862 17.038 78.4048 16.8878C77.636 16.2502 76.7163 16.0863 75.5973 16.3876ZM74.4986 18.7499C74.1184 19.1183 73.6308 19.6516 73.4157 19.935C72.9947 20.4881 72.8591 20.4701 72.9711 19.8758C73.0886 19.2552 74.4422 18.1285 75.1236 18.0844C75.1597 18.0821 74.8784 18.3815 74.4986 18.7499ZM78.7199 18.4546C79.5405 19.0425 78.2901 20.478 76.4809 21.0241C75.9692 21.1784 74.6332 21.2781 74.6332 21.1619C74.6332 20.7517 76.4429 19.0251 77.3547 18.5657C78.0769 18.2015 78.3373 18.1804 78.7199 18.4546ZM114.728 21.6373C114.648 21.7333 114.66 21.9492 114.795 22.8072C114.992 24.0649 115.108 25.1526 115.11 25.7548L115.111 26.1948H112.929C110.354 26.1948 110.562 26.1071 110.562 27.1902C110.562 28.2729 110.354 28.1851 112.929 28.1851H115.111L115.11 28.6256C115.108 29.2274 114.992 30.3151 114.795 31.5727C114.662 32.4197 114.648 32.6476 114.726 32.7404C114.852 32.891 116.323 32.9057 116.526 32.7578C116.727 32.6122 117.116 30.0211 117.116 28.8291C117.116 28.1332 116.936 28.1851 119.344 28.1851C121.866 28.1851 121.665 28.2719 121.665 27.1902C121.665 26.108 121.867 26.1948 119.338 26.1948H117.196L117.16 26.0226C117.141 25.928 117.105 25.4714 117.079 25.0084C117.024 23.985 116.749 22.0181 116.626 21.7544C116.512 21.5119 114.915 21.4136 114.728 21.6373ZM90.0231 22.8711C89.9163 23.1476 89.9981 23.6515 90.3969 25.1687C91.0459 27.6358 91.3138 29.3335 91.0547 29.3335C90.9946 29.3335 90.2077 28.2334 90.2077 28.1498C90.2077 28.1089 89.4028 26.8416 89.0146 26.2715C87.1814 23.5775 86.283 24.1127 85.7029 28.2453C85.2722 31.3141 85.7727 32.9516 86.9875 32.4473C87.4233 32.2668 87.5056 31.8869 87.582 29.706C87.668 27.2665 87.6574 27.2784 88.423 28.7386C89.8663 31.4919 90.6213 32.2737 91.589 32.0146C93.2123 31.581 93.5713 27.5035 92.2288 24.7493C91.5955 23.4499 90.2442 22.2992 90.0231 22.8711ZM138.47 23.9175C138.469 24.0961 138.417 24.5872 138.356 25.0084C138.294 25.4291 138.244 25.8687 138.243 25.9845L138.241 26.1948H142.405C144.697 26.1948 146.568 26.165 146.568 26.1287C146.568 26.0919 146.637 25.5536 146.723 24.9317C146.807 24.3097 146.877 23.7539 146.877 23.6965C146.877 23.6092 146.174 23.5918 142.675 23.5918H138.473L138.47 23.9175ZM148.791 23.6667C147.79 23.9671 147.299 24.6005 147.145 25.7934L147.094 26.1953L165.496 26.1567L165.519 25.4893C165.551 24.5357 165.302 24.098 164.533 23.7516C164.166 23.5867 149.325 23.5068 148.791 23.6667ZM166.267 24.1852C166.238 24.5114 166.184 25.0024 166.146 25.2762C166.108 25.5499 166.077 25.8687 166.076 25.9845L166.075 26.1948H175.076L175.125 25.9555C175.326 24.9528 174.984 24.1301 174.218 23.776L173.823 23.5936L166.319 23.5918L166.267 24.1852ZM103.349 23.8926C101.413 25.3193 100.097 28.6945 100.765 30.5204C100.858 30.773 100.951 31.033 100.972 31.0982C100.994 31.1639 100.857 31.5773 100.669 32.0169C98.9222 36.0857 98.8214 38.6226 100.36 39.7645C100.94 40.1949 101.272 40.0373 101.391 39.2753C101.432 39.0075 101.502 38.5643 101.545 38.2905C101.756 36.9492 102.435 34.6011 103.018 33.191L103.243 32.6462L103.761 32.682C106.372 32.863 109.022 29.8176 108.84 26.8457C108.626 23.341 105.88 23.9404 102.891 28.1438C102.764 28.3229 102.526 28.655 102.363 28.8824L102.067 29.2953L102.116 28.8181C102.177 28.2361 102.377 27.6399 102.723 27.0124C102.867 26.7525 103.178 26.1866 103.415 25.7548C104.273 24.1963 104.239 23.2372 103.349 23.8926ZM79.9596 24.0176C77.5962 24.4255 76.1723 25.5623 76.3527 26.8976C76.4665 27.7419 76.7612 27.8696 79.1436 28.108C83.3094 28.525 84.3775 29.0445 82.8833 29.9278C81.2526 30.8911 77.6402 30.9301 77.6402 29.9843C77.6402 29.3822 78.5779 29.3675 79.8542 29.949C80.5694 30.2751 81.0236 30.2972 81.8424 30.0436C83.6272 29.4915 82.1135 28.4911 79.4522 28.4639C78.1833 28.4511 77.9344 28.4933 77.4676 28.8006C75.4405 30.1336 78.2859 32.8157 81.4955 32.5966C83.957 32.4289 85.3157 31.0913 84.9604 29.1851C84.6592 27.5687 84.21 27.3427 80.3182 26.8466C78.0704 26.5605 77.865 26.5095 78.2244 26.329C78.6944 26.0933 79.7533 25.956 81.6495 25.8857C84.4187 25.7824 84.8683 25.679 85.1547 25.08C85.367 24.6363 85.0635 24.3736 84.0009 24.081C83.3515 23.9018 80.8571 23.8628 79.9596 24.0176ZM97.4937 24.0249C95.7825 24.227 94.0186 24.5449 93.8507 24.6809C93.4311 25.0212 94.3189 26.0419 95.0345 26.0419C95.1432 26.0419 95.2205 26.0694 95.2066 26.1039C94.7745 27.147 94.6556 27.3308 94.3808 27.3818C93.7878 27.4925 93.6786 27.7162 93.8678 28.4346C93.9802 28.8604 93.9775 28.8948 93.785 29.4681C92.8011 32.4004 94.6047 33.9346 97.5164 32.6416C99.4755 31.7721 100.156 31.0385 99.6689 30.321C99.3178 29.8029 98.9639 29.7992 96.5338 30.2898C95.4643 30.5052 95.5448 30.5778 95.8307 29.6578L96.0675 28.8957L97.1662 28.8452C99.3284 28.7455 99.3825 28.723 99.3825 27.9293C99.3825 27.2035 99.3557 27.1902 97.9309 27.1902C97.2878 27.1902 96.7614 27.1617 96.7614 27.1273C96.7614 27.0928 96.8141 26.8884 96.8784 26.6735L96.9955 26.2821L97.3989 26.2412C97.6205 26.2183 98.2533 26.1631 98.8043 26.1181C99.7433 26.0414 100.556 25.9321 100.867 25.8411C101.301 25.7144 100.864 24.6827 100.158 24.1682C99.8979 23.9785 98.5156 23.9041 97.4937 24.0249ZM74.333 24.4953C73.7358 25.6574 73.4952 31.2319 73.999 32.2351C74.3714 32.9774 75.5441 33.0449 75.8402 32.3407C76.0715 31.7923 75.8221 26.3639 75.5099 25.143C75.2897 24.2822 74.6291 23.9188 74.333 24.4953ZM107.708 26.8384C107.698 28.3983 106.183 30.0767 104.516 30.3734L104.214 30.4271L104.508 29.9067C104.99 29.0501 105.652 28.1498 106.823 26.7566C107.306 26.1815 107.711 26.2192 107.708 26.8384ZM57.4882 31.2999L56.9932 31.1217C54.9999 30.4037 52.1933 28.2288 52.5078 27.645C52.7373 27.2192 55.3292 26.5903 57.1699 26.5141L57.4785 26.5012L57.4882 31.2999ZM138.06 27.3239C138.04 27.3978 137.966 27.9403 137.897 28.5296C137.827 29.1194 137.685 30.2733 137.582 31.0946C137.478 31.9154 137.393 32.6476 137.393 32.7211C137.393 32.8474 137.643 32.8552 141.557 32.8552C143.847 32.8552 145.72 32.8419 145.72 32.8253C145.72 32.8088 145.789 32.2833 145.874 31.6577C145.958 31.0321 146.028 30.4772 146.028 30.4244C146.028 30.35 145.46 30.3288 143.441 30.3288H140.854L140.903 29.9651C140.999 29.265 140.706 29.3335 143.605 29.3335C145.023 29.3335 146.184 29.3078 146.185 29.2761C146.186 29.2448 146.237 28.8571 146.298 28.4148C146.359 27.9729 146.41 27.5163 146.412 27.4006L146.414 27.1902H142.256C138.361 27.1902 138.095 27.1985 138.06 27.3239ZM146.981 27.3078C146.884 27.5581 147.033 28.447 147.22 28.7285C147.579 29.2701 147.701 29.2926 150.375 29.3179L152.756 29.3399L152.708 29.6922C152.681 29.8856 152.659 30.1079 152.659 30.1865C152.659 30.3229 152.532 30.3288 149.622 30.3288H146.586L146.495 31.1134C146.445 31.5452 146.378 32.1152 146.346 32.3802L146.286 32.8616L153.931 32.8171L154.441 32.5773C155.316 32.1653 155.516 31.7803 155.74 30.0707C155.954 28.4277 155.832 27.9127 155.116 27.4419L154.791 27.2283L150.909 27.2072C147.419 27.1879 147.023 27.198 146.981 27.3078ZM156.645 27.2476C156.626 27.2789 156.533 27.9596 156.437 28.7593C156.342 29.5595 156.188 30.8084 156.095 31.5346L155.927 32.8552H159.109L159.554 29.3335H161.725C164.747 29.3335 165.086 29.1782 165.285 27.7005L165.354 27.1902H161.016C158.63 27.1902 156.663 27.2159 156.645 27.2476ZM165.892 27.3239C165.87 27.3978 165.779 28.0781 165.688 28.836C165.598 29.5939 165.457 30.7358 165.375 31.3734C165.293 32.0109 165.227 32.6053 165.227 32.694C165.227 32.8529 165.251 32.8552 166.807 32.8552C168.034 32.8552 168.388 32.8336 168.388 32.7578C168.388 32.7045 168.49 31.8515 168.616 30.8631C168.742 29.8746 168.882 28.7386 168.928 28.3386C168.973 27.9385 169.029 27.5163 169.052 27.4006L169.094 27.1902H167.512C166.072 27.1902 165.928 27.2022 165.892 27.3239ZM171.754 27.4387C171.73 27.5756 171.655 28.17 171.586 28.7593C171.517 29.3491 171.376 30.4869 171.273 31.2884C171.17 32.0899 171.086 32.7707 171.086 32.8005C171.086 32.8304 171.793 32.8552 172.658 32.8552H174.23L174.275 32.6062C174.345 32.2158 174.701 29.4501 174.785 28.6445C174.826 28.2444 174.883 27.7538 174.911 27.5535L174.962 27.1902H171.797L171.754 27.4387Z" fill="white"/>
</g>
<defs>
<clipPath id="clip0_4370_67240">
<rect width="185.041" height="40" fill="white"/>
</clipPath>
</defs>
</svg>
